<?xml version="1.0" encoding="UTF-8" standalone="no"?>
<!-- Created with Inkscape (http://www.inkscape.org/) -->

<svg
   xmlns:dc="http://purl.org/dc/elements/1.1/"
   xmlns:cc="http://creativecommons.org/ns#"
   xmlns:rdf="http://www.w3.org/1999/02/22-rdf-syntax-ns#"
   xmlns:svg="http://www.w3.org/2000/svg"
   xmlns="http://www.w3.org/2000/svg"
   xmlns:sodipodi="http://sodipodi.sourceforge.net/DTD/sodipodi-0.dtd"
   xmlns:inkscape="http://www.inkscape.org/namespaces/inkscape"
   width="400"
   height="400"
   viewBox="0 0 211.66667 211.66667"
   version="1.1"
   id="svg8"
   inkscape:version="0.92.4 (5da689c313, 2019-01-14)"
   sodipodi:docname="downloading.svg">
  <defs
     id="defs2" />
  <sodipodi:namedview
     id="base"
     pagecolor="#ffffff"
     bordercolor="#666666"
     borderopacity="1.0"
     inkscape:pageopacity="0.0"
     inkscape:pageshadow="2"
     inkscape:zoom="0.9899495"
     inkscape:cx="125.31532"
     inkscape:cy="207.47779"
     inkscape:document-units="mm"
     inkscape:current-layer="g867"
     showgrid="false"
     showguides="true"
     inkscape:guide-bbox="true"
     units="px"
     inkscape:snap-smooth-nodes="true">
    <sodipodi:guide
       position="105.83334,105.83334"
       orientation="1,0"
       id="guide815"
       inkscape:locked="false"
       inkscape:label=""
       inkscape:color="rgb(0,0,255)" />
    <sodipodi:guide
       position="105.83334,105.83334"
       orientation="0,1"
       id="guide817"
       inkscape:locked="false"
       inkscape:label=""
       inkscape:color="rgb(0,0,255)" />
  </sodipodi:namedview>
  <metadata
     id="metadata5">
    <rdf:RDF>
      <cc:Work
         rdf:about="">
        <dc:format>image/svg+xml</dc:format>
        <dc:type
           rdf:resource="http://purl.org/dc/dcmitype/StillImage" />
        <dc:title />
      </cc:Work>
    </rdf:RDF>
  </metadata>
  <g
     inkscape:label="Layer 1"
     inkscape:groupmode="layer"
     id="layer1"
     transform="translate(0,-85.333337)">
    <circle
       style="opacity:1;fill:#ffffff;fill-opacity:1;stroke:#000000;stroke-width:6.34336472;stroke-linecap:square;stroke-linejoin:miter;stroke-miterlimit:4;stroke-dasharray:none;stroke-opacity:1;paint-order:markers stroke fill"
       id="path819"
       cx="106.36788"
       cy="175.55836"
       r="58.877338" />
    <path
       style="fill:none;stroke:#000000;stroke-width:1.68693316;stroke-linecap:butt;stroke-linejoin:miter;stroke-miterlimit:4;stroke-dasharray:none;stroke-opacity:1"
       d="m 125.66645,119.47487 c 14.9846,35.36728 15.37564,77.56 0.37694,112.30547"
       id="path827"
       inkscape:connector-curvature="0"
       sodipodi:nodetypes="cc" />
    <path
       sodipodi:nodetypes="cc"
       inkscape:connector-curvature="0"
       id="path829"
       d="m 85.531405,119.09793 c -14.984589,35.36728 -15.375638,77.56 -0.376935,112.30547"
       style="fill:none;stroke:#000000;stroke-width:1.68693316;stroke-linecap:butt;stroke-linejoin:miter;stroke-miterlimit:4;stroke-dasharray:none;stroke-opacity:1" />
    <path
       style="fill:none;stroke:#000000;stroke-width:1.63882363;stroke-linecap:butt;stroke-linejoin:miter;stroke-miterlimit:4;stroke-dasharray:none;stroke-opacity:1"
       d="m 49.006,157.53208 c 39.658769,-12.41558 72.84263,-12.41558 115.33417,0"
       id="path833"
       inkscape:connector-curvature="0"
       sodipodi:nodetypes="cc" />
    <path
       sodipodi:nodetypes="cc"
       inkscape:connector-curvature="0"
       id="path835"
       d="m 49.382936,191.16667 c 39.658768,12.41559 72.842634,12.41559 115.334174,0"
       style="fill:none;stroke:#000000;stroke-width:1.63882363;stroke-linecap:butt;stroke-linejoin:miter;stroke-miterlimit:4;stroke-dasharray:none;stroke-opacity:1" />
    <g
       id="g867">
      <path
         d="m 68.464037,263.85858 h -9.735839 v -15.38924 h 2.046386 v 13.57023 h 7.689453 z"
         style="font-style:normal;font-weight:normal;font-size:21.16666603px;line-height:1.25;font-family:sans-serif;letter-spacing:0px;word-spacing:0px;fill:#000000;fill-opacity:1;stroke:none;stroke-width:0.5291667"
         id="path826"
         inkscape:connector-curvature="0" />
      <path
         d="m 80.194587,258.09149 q 0,2.82153 -1.44694,4.45451 -1.44694,1.63298 -3.875732,1.63298 -2.449463,0 -3.896403,-1.63298 -1.436605,-1.63298 -1.436605,-4.45451 0,-2.82153 1.436605,-4.45451 1.44694,-1.64331 3.896403,-1.64331 2.428792,0 3.875732,1.64331 1.44694,1.63298 1.44694,4.45451 z m -2.005045,0 q 0,-2.24276 -0.878499,-3.32796 -0.8785,-1.09554 -2.439128,-1.09554 -1.581299,0 -2.459798,1.09554 -0.868164,1.0852 -0.868164,3.32796 0,2.17041 0.878499,3.29696 0.878499,1.11621 2.449463,1.11621 1.550293,0 2.428792,-1.10588 0.888835,-1.11621 0.888835,-3.30729 z"
         style="font-style:normal;font-weight:normal;font-size:21.16666603px;line-height:1.25;font-family:sans-serif;letter-spacing:0px;word-spacing:0px;fill:#000000;fill-opacity:1;stroke:none;stroke-width:0.5291667"
         id="path828"
         inkscape:connector-curvature="0" />
      <path
         d="m 92.183519,263.85858 h -1.932698 v -1.2299 q -0.258383,0.1757 -0.7028,0.4961 -0.434082,0.31005 -0.847493,0.49609 -0.485759,0.23771 -1.116211,0.39274 -0.630453,0.16537 -1.477946,0.16537 -1.560628,0 -2.645833,-1.03353 -1.085206,-1.03353 -1.085206,-2.6355 0,-1.31258 0.558106,-2.11873 0.568441,-0.81649 1.612305,-1.28158 1.054199,-0.46509 2.532145,-0.63045 1.477946,-0.16537 3.172933,-0.24805 v -0.29972 q 0,-0.66146 -0.237712,-1.09554 -0.227376,-0.43409 -0.661458,-0.68213 -0.413412,-0.23771 -0.992188,-0.3204 -0.578776,-0.0827 -1.209228,-0.0827 -0.764811,0 -1.705323,0.20671 -0.940511,0.19637 -1.943033,0.57877 h -0.103353 v -1.97404 q 0.568441,-0.15503 1.64331,-0.34106 1.07487,-0.18604 2.118734,-0.18604 1.219564,0 2.118734,0.20671 0.909505,0.19637 1.570963,0.68213 0.651123,0.47542 0.992188,1.2299 0.341064,0.75447 0.341064,1.87068 z m -1.932698,-2.8422 v -3.21428 q -0.888835,0.0517 -2.098064,0.15503 -1.198893,0.10336 -1.901692,0.29973 -0.837158,0.23771 -1.353923,0.74414 -0.516764,0.49609 -0.516764,1.37459 0,0.99219 0.599447,1.49862 0.599446,0.49609 1.829345,0.49609 1.023194,0 1.870687,-0.39274 0.847493,-0.40308 1.570964,-0.96118 z"
         style="font-style:normal;font-weight:normal;font-size:21.16666603px;line-height:1.25;font-family:sans-serif;letter-spacing:0px;word-spacing:0px;fill:#000000;fill-opacity:1;stroke:none;stroke-width:0.5291667"
         id="path830"
         inkscape:connector-curvature="0" />
      <path
         d="m 105.30933,263.85858 h -1.94303 v -1.20923 q -0.83716,0.72347 -1.74666,1.12655 -0.90951,0.40308 -1.974045,0.40308 -2.067057,0 -3.286621,-1.59164 -1.209228,-1.59163 -1.209228,-4.41317 0,-1.46761 0.413411,-2.61482 0.423747,-1.14722 1.136882,-1.95337 0.702799,-0.78548 1.632975,-1.1989 0.940511,-0.41341 1.943036,-0.41341 0.9095,0 1.6123,0.19637 0.7028,0.18604 1.47795,0.58911 v -5.00227 h 1.94303 z m -1.94303,-2.8422 v -6.62492 q -0.78548,-0.3514 -1.4056,-0.48576 -0.62012,-0.13436 -1.35392,-0.13436 -1.632978,0 -2.542483,1.13688 -0.909506,1.13689 -0.909506,3.22461 0,2.05672 0.7028,3.13159 0.702799,1.06454 2.253089,1.06454 0.82683,0 1.67432,-0.36174 0.84749,-0.37207 1.5813,-0.95084 z"
         style="font-style:normal;font-weight:normal;font-size:21.16666603px;line-height:1.25;font-family:sans-serif;letter-spacing:0px;word-spacing:0px;fill:#000000;fill-opacity:1;stroke:none;stroke-width:0.5291667"
         id="path832"
         inkscape:connector-curvature="0" />
      <path
         d="m 111.22111,250.38137 h -2.19108 v -2.01538 h 2.19108 z m -0.12402,13.47721 h -1.94303 v -11.54451 h 1.94303 z"
         style="font-style:normal;font-weight:normal;font-size:21.16666603px;line-height:1.25;font-family:sans-serif;letter-spacing:0px;word-spacing:0px;fill:#000000;fill-opacity:1;stroke:none;stroke-width:0.5291667"
         id="path834"
         inkscape:connector-curvature="0" />
      <path
         d="m 124.61565,263.85858 h -1.94304 v -6.57324 q 0,-0.79582 -0.093,-1.48828 -0.093,-0.7028 -0.34106,-1.09554 -0.25838,-0.43408 -0.74414,-0.64079 -0.48576,-0.21704 -1.26091,-0.21704 -0.79581,0 -1.66398,0.39274 -0.86816,0.39274 -1.66398,1.00252 v 8.61963 h -1.94303 v -11.54451 h 1.94303 v 1.28157 q 0.90951,-0.75447 1.88102,-1.17822 0.97152,-0.42375 1.99471,-0.42375 1.87069,0 2.85254,1.12655 0.98186,1.12655 0.98186,3.24528 z"
         style="font-style:normal;font-weight:normal;font-size:21.16666603px;line-height:1.25;font-family:sans-serif;letter-spacing:0px;word-spacing:0px;fill:#000000;fill-opacity:1;stroke:none;stroke-width:0.5291667"
         id="path836"
         inkscape:connector-curvature="0" />
      <path
         d="m 137.72079,262.546 q 0,2.93522 -1.33325,4.30981 -1.33325,1.3746 -4.10311,1.3746 -0.91984,0 -1.79834,-0.13436 -0.86817,-0.12402 -1.71566,-0.36174 v -1.98437 h 0.10335 q 0.47543,0.18603 1.50896,0.45475 1.03352,0.27905 2.06705,0.27905 0.99219,0 1.64331,-0.23771 0.65113,-0.23771 1.01286,-0.66146 0.36174,-0.40307 0.51677,-0.97151 0.15503,-0.56844 0.15503,-1.27124 v -1.0542 q -0.8785,0.7028 -1.68466,1.0542 -0.79581,0.34106 -2.03605,0.34106 -2.06705,0 -3.28662,-1.48828 -1.20923,-1.49862 -1.20923,-4.2168 0,-1.48828 0.41341,-2.56315 0.42375,-1.0852 1.14722,-1.87068 0.67179,-0.73381 1.63298,-1.13689 0.96118,-0.41341 1.91202,-0.41341 1.00253,0 1.67432,0.20671 0.68213,0.19637 1.43661,0.60978 l 0.12402,-0.49609 h 1.81901 z m -1.94303,-1.86035 v -6.29419 q -0.77515,-0.3514 -1.44694,-0.49609 -0.66146,-0.15503 -1.32292,-0.15503 -1.60197,0 -2.52181,1.07487 -0.91984,1.07487 -0.91984,3.12125 0,1.94304 0.68213,2.94556 0.68213,1.00252 2.26343,1.00252 0.84749,0 1.69498,-0.32039 0.85783,-0.33073 1.57097,-0.8785 z"
         style="font-style:normal;font-weight:normal;font-size:21.16666603px;line-height:1.25;font-family:sans-serif;letter-spacing:0px;word-spacing:0px;fill:#000000;fill-opacity:1;stroke:none;stroke-width:0.5291667"
         id="path838"
         inkscape:connector-curvature="0" />
      <path
         d="m 144.71778,263.85858 h -2.47013 v -2.94556 h 2.47013 z"
         style="font-style:normal;font-weight:normal;font-size:21.16666603px;line-height:1.25;font-family:sans-serif;letter-spacing:0px;word-spacing:0px;fill:#000000;fill-opacity:1;stroke:none;stroke-width:0.5291667"
         id="path840"
         inkscape:connector-curvature="0" />
      <path
         d="m 152.40723,263.85858 h -2.47013 v -2.94556 h 2.47013 z"
         style="font-style:normal;font-weight:normal;font-size:21.16666603px;line-height:1.25;font-family:sans-serif;letter-spacing:0px;word-spacing:0px;fill:#000000;fill-opacity:1;stroke:none;stroke-width:0.5291667"
         id="path842"
         inkscape:connector-curvature="0" />
      <path
         d="m 160.09669,263.85858 h -2.47014 v -2.94556 h 2.47014 z"
         style="font-style:normal;font-weight:normal;font-size:21.16666603px;line-height:1.25;font-family:sans-serif;letter-spacing:0px;word-spacing:0px;fill:#000000;fill-opacity:1;stroke:none;stroke-width:0.5291667"
         id="path844"
         inkscape:connector-curvature="0" />
    </g>
  </g>
</svg>
